<?xml version="1.0" encoding="UTF-8"?>
<svg width="800" height="800" version="1.1" xmlns="http://www.w3.org/2000/svg" xmlns:xlink="http://www.w3.org/1999/xlink">
  <defs>
    <linearGradient id="f" x1="-29.196" x2="29.81" y1="-89.15" y2="-136.02" gradientTransform="matrix(1.7742,0,0,1.7787,583.3,509.1)" gradientUnits="userSpaceOnUse">
      <stop stop-color="#cb0000" offset="0"/>
      <stop stop-color="#ffaeae" offset="1"/>
    </linearGradient>
    <linearGradient id="e" x1="-29.196" x2="29.81" y1="-89.15" y2="-136.02" gradientTransform="matrix(1.7742,0,0,1.7787,264.2,509.1)" gradientUnits="userSpaceOnUse">
      <stop stop-color="#0000b5" offset="0"/>
      <stop stop-color="#99f" offset="1"/>
    </linearGradient>
    <radialGradient id="b" cx="-13.352" cy="-113.13" r="62.02" gradientTransform="matrix(.92132 0 0 .92132 296.2 368.7)" gradientUnits="userSpaceOnUse">
      <stop stop-color="#fff" offset="0"/>
      <stop stop-color="#fff" stop-opacity="0" offset="1"/>
    </radialGradient>
    <linearGradient id="d" x1="-29.196" x2="29.81" y1="-89.15" y2="-136.02" gradientTransform="matrix(1.7742,0,0,1.7787,423.7,785.3)" gradientUnits="userSpaceOnUse">
      <stop stop-color="#0a0" offset="0"/>
      <stop stop-color="#0f0" offset="1"/>
    </linearGradient>
  </defs>
  <circle cx="400" cy="400" r="333.07" fill="#ccc"/>
  <circle cx="400" cy="584.1" r="109.54" fill="url(#d)"/>
  <circle cx="240.5" cy="307.9" r="109.54" fill="url(#e)"/>
  <circle id="c" cx="283.9" cy="264.4" r="66.114" fill="url(#b)"/>
  <path d="m261.9 352.6 1.127-16.965-5.5411 6.0321q-6.4801 7.0688-13.242 9.9906-6.6681 2.8274-16.529 2.8274-8.4524 0-14.557-3.5815-6.1044-3.5816-8.922-9.2365-2.7235-5.7493-2.7235-18.096 0-6.4091 0.2818-14.892l0.2816-15.174q0-15.928-0.9391-17.719-0.8453-1.7908-5.9168-1.7908h-8.3584v-5.1838q12.773-1.131 23.573-4.7125l7.795-2.9217q1.5965 0 1.5965 2.3562l-0.6573 9.6136q-1.3148 19.981-1.3148 37.135t1.4087 21.96q1.4087 4.7125 5.9166 7.917 4.5081 3.1104 10.988 3.1104 8.7341 0 15.966-5.6551 7.3255-5.6551 9.5795-11.404 1.2208-3.2987 1.2208-19.887 0-27.898-1.033-30.349-0.9392-1.9793-8.4524-1.9793h-7.4194v-5.1838q9.6733-1.131 16.435-2.639 6.7621-1.5079 14.275-4.5241 0.9392-0.4711 1.6904-0.4711 1.5968 0 1.5968 1.7908l-0.3757 8.7653q-1.4087 32.234-1.4087 56.739 0 13.761 1.4087 15.74 2.0662 2.9217 8.922 2.9217h5.4471v5.4666q-11.74-0.6597-19.91-0.6597-6.1046 0-12.209 0.6597z" fill="#f9f9f9" stroke="#666" stroke-width="3"/>
  <circle cx="559.6" cy="307.9" r="109.54" fill="url(#f)"/>
  <path id="a" d="m400 400.6c1.1432-7.3366 2.2867-14.675-0.3728-16.203-2.6593-1.5281-8.4742 3.1264-14.289 7.7807-5.8145 4.6542-11.629 9.3084-14.289 7.7808-2.6595-1.5277-1.5161-8.8661-0.3727-16.204 1.1431-7.3376 2.2865-14.676-0.3729-16.204-2.6594-1.5279-8.4743 3.1266-14.289 7.7808-5.8143 4.654-11.629 9.3085-14.289 7.7807-2.6595-1.5279-1.5162-8.8661-0.3729-16.203 1.1432-7.3365 2.2866-14.675-0.3729-16.203-2.6594-1.5279-8.4742 3.1265-14.289 7.7807-5.8142 4.6539-9.528 8.1751-9.528 8.1751" fill="none" stroke="#fdffbd" stroke-linecap="round" stroke-linejoin="round" stroke-width="10"/>
  <use transform="translate(159.53 276.27)" xlink:href="#c"/>
  <use transform="translate(319.13 .073998)" xlink:href="#c"/>
  <path id="g" d="m579.9 292.2v-34.119q0-5.9377-1.3147-7.4459-1.315-1.508-6.0107-1.508h-8.0769v-5.655q16.717-1.131 31.18-6.9746l1.6905 1.1311q-0.6575 9.6135-1.1269 23.186l-0.3757 25.071-0.1879 8.1055v56.268q0 15.74 0.9391 17.531 1.4089 2.5447 7.7951 3.393l6.668 0.8483v5.5607q-11.552-0.8482-20.38-0.8482-1.5966 0-11.834 0.8482 0.6574-6.409 1.0331-18.19-7.9829 6.2205-20.38 17.436-7.9828 2.6389-14.087 2.6389-15.872 0-26.578-11.97t-10.706-32.045q0-12.535 4.1324-21.395 4.1321-8.8596 9.8611-12.818 5.7289-4.0529 17.844-10.179 9.2978-4.6184 17.187-4.6184 5.3532 0 10.988 1.4139 5.7289 1.4137 11.74 4.3354zm0 16.211q-6.4803-6.9745-13.524-10.462-6.9498-3.4873-14.557-3.4873-12.303 0-19.816 9.0481-7.5133 8.9539-7.5133 26.296 0 17.625 8.5464 27.71 8.6402 9.9905 20.943 9.9905 7.5133 0 13.806-4.1471 6.2923-4.2412 9.2036-10.933 2.9115-6.6918 2.9115-21.018z" fill="#f9f9f9" stroke="#666" stroke-width="3"/>
  <use transform="matrix(-1 0 0 1 800.03 -.0363)" xlink:href="#a"/>
  <use transform="matrix(.5 -.86603 -.86603 -.5 546.43 946.45)" xlink:href="#a"/>
  <use transform="translate(-159.61 276.21)" xlink:href="#g"/>
</svg>
